<svg width="54" height="42" viewBox="0 0 54 42" fill="none" xmlns="http://www.w3.org/2000/svg">
<path d="M32.7 0C31.9406 1.32188 31.5 2.85938 31.5 4.5V6H6V27H31.5V33H6C2.69063 33 0 30.3094 0 27V6C0 2.69063 2.69063 0 6 0H32.7ZM31.5 37.5C31.5 39.1406 31.9406 40.6781 32.7 42H11.25C10.0031 42 9 40.9969 9 39.75C9 38.5031 10.0031 37.5 11.25 37.5H31.5ZM40.5 0H49.5C51.9844 0 54 2.01562 54 4.5V37.5C54 39.9844 51.9844 42 49.5 42H40.5C38.0156 42 36 39.9844 36 37.5V4.5C36 2.01562 38.0156 0 40.5 0ZM42.75 6C41.5031 6 40.5 7.00313 40.5 8.25C40.5 9.49687 41.5031 10.5 42.75 10.5H47.25C48.4969 10.5 49.5 9.49687 49.5 8.25C49.5 7.00313 48.4969 6 47.25 6H42.75ZM42.75 15C41.5031 15 40.5 16.0031 40.5 17.25C40.5 18.4969 41.5031 19.5 42.75 19.5H47.25C48.4969 19.5 49.5 18.4969 49.5 17.25C49.5 16.0031 48.4969 15 47.25 15H42.75ZM48 28.5C48 27.7044 47.6839 26.9413 47.1213 26.3787C46.5587 25.8161 45.7957 25.5 45 25.5C44.2043 25.5 43.4413 25.8161 42.8787 26.3787C42.3161 26.9413 42 27.7044 42 28.5C42 29.2956 42.3161 30.0587 42.8787 30.6213C43.4413 31.1839 44.2043 31.5 45 31.5C45.7957 31.5 46.5587 31.1839 47.1213 30.6213C47.6839 30.0587 48 29.2956 48 28.5Z" fill="white"/>
</svg>
