<svg width="90" height="90" viewBox="0 0 90 90" fill="none" xmlns="http://www.w3.org/2000/svg">
<g clip-path="url(#clip0_12_88)">
<path d="M0 13.5C0 6.04415 6.04415 0 13.5 0H76.5C83.9558 0 90 6.04415 90 13.5V76.5C90 83.9558 83.9558 90 76.5 90H13.5C6.04415 90 0 83.9558 0 76.5V13.5Z" fill="#3A5E98"/>
<path d="M36.1758 22.1581C36.0224 20.7966 35.3896 19.7419 34.2774 18.994C33.1651 18.2366 31.7653 17.8579 30.0778 17.8579C28.8696 17.8579 27.8246 18.0496 26.9425 18.4331C26.0604 18.8071 25.3748 19.3248 24.8858 19.9864C24.4064 20.6383 24.1667 21.3815 24.1667 22.2156C24.1667 22.9156 24.3297 23.5196 24.6557 24.0277C24.9913 24.5359 25.4276 24.9626 25.9644 25.3078C26.511 25.6433 27.0959 25.9262 27.7191 26.1563C28.3424 26.3768 28.9416 26.559 29.5169 26.7029L32.3933 27.4507C33.333 27.6808 34.2965 27.9925 35.2841 28.3855C36.2717 28.7786 37.1873 29.2964 38.0311 29.9388C38.8748 30.5812 39.5556 31.377 40.0733 32.3263C40.6007 33.2755 40.8644 34.4116 40.8644 35.7348C40.8644 37.4031 40.4328 38.8845 39.57 40.1789C38.7167 41.4732 37.475 42.4944 35.845 43.2423C34.2246 43.9902 32.2639 44.364 29.9627 44.364C27.7575 44.364 25.8495 44.0141 24.2387 43.3142C22.6278 42.6142 21.367 41.6218 20.4561 40.3371C19.5453 39.0427 19.0419 37.5086 18.946 35.7348H23.4045C23.4908 36.7991 23.8359 37.686 24.44 38.3954C25.0536 39.0954 25.8351 39.618 26.7842 39.9631C27.7431 40.2987 28.793 40.4665 29.934 40.4665C31.19 40.4665 32.307 40.2699 33.2849 39.8768C34.2726 39.4741 35.0492 38.918 35.6149 38.2085C36.1806 37.4894 36.4634 36.6505 36.4634 35.6916C36.4634 34.8192 36.2141 34.1048 35.7156 33.5487C35.2266 32.9926 34.5602 32.5324 33.7165 32.168C32.8823 31.8037 31.9379 31.4825 30.8832 31.2044L27.4028 30.2552C25.0441 29.6128 23.1743 28.6684 21.7937 27.422C20.4226 26.1755 19.737 24.5263 19.737 22.4746C19.737 20.7774 20.1972 19.2961 21.1177 18.0305C22.0382 16.7648 23.2846 15.782 24.8571 15.0821C26.4295 14.3725 28.2033 14.0178 30.1785 14.0178C32.1728 14.0178 33.9321 14.3678 35.4566 15.0677C36.9908 15.7676 38.1988 16.7312 39.0809 17.9585C39.963 19.1762 40.4233 20.5761 40.4616 22.1581H36.1758Z" fill="white"/>
<path d="M70.6389 23.999H66.1517C65.9791 23.0402 65.6579 22.1965 65.1881 21.4678C64.7182 20.739 64.143 20.1206 63.4623 19.6124C62.7815 19.1043 62.0192 18.7208 61.1755 18.4619C60.3413 18.203 59.4545 18.0736 58.5147 18.0736C56.8177 18.0736 55.298 18.5003 53.9557 19.3536C52.6229 20.2069 51.5682 21.4581 50.7916 23.1074C50.0246 24.7565 49.6411 26.7699 49.6411 29.1478C49.6411 31.5449 50.0246 33.5678 50.7916 35.2171C51.5682 36.8662 52.6277 38.1126 53.9701 38.9564C55.3124 39.8001 56.8225 40.222 58.5005 40.222C59.4305 40.222 60.3126 40.0973 61.1467 39.848C61.9904 39.5892 62.7527 39.2105 63.4335 38.7119C64.1142 38.2133 64.6895 37.6045 65.1593 36.8854C65.6387 36.1567 65.9696 35.3225 66.1517 34.3829L70.6389 34.3973C70.3992 35.8451 69.9342 37.1779 69.2439 38.3954C68.5631 39.6036 67.6857 40.6487 66.6119 41.5308C65.5477 42.4033 64.33 43.0793 62.9588 43.5586C61.5878 44.0381 60.092 44.2777 58.4717 44.2777C55.9212 44.2777 53.6489 43.6737 51.6545 42.4656C49.6602 41.248 48.0878 39.5077 46.9371 37.2449C45.7962 34.9821 45.2257 32.2831 45.2257 29.1478C45.2257 26.0029 45.801 23.3039 46.9515 21.0506C48.1022 18.7879 49.6746 17.0524 51.6689 15.8444C53.6632 14.6267 55.9308 14.0178 58.4717 14.0178C60.0345 14.0178 61.4918 14.2432 62.8439 14.6938C64.2053 15.1348 65.4278 15.7868 66.5112 16.6498C67.5947 17.5031 68.4911 18.5482 69.2007 19.785C69.9102 21.0123 70.3896 22.417 70.6389 23.999Z" fill="white"/>
<path d="M24.3186 51.9081V50.4204H33.1836V51.9081H29.6095V61.8749H27.8869V51.9081H24.3186Z" fill="white"/>
<path d="M35.1425 61.8749V50.4204H42.324V51.9081H36.8708V55.3982H41.9492V56.8803H36.8708V60.3871H42.391V61.8749H35.1425Z" fill="white"/>
<path d="M54.1463 54.1454H52.4012C52.3341 53.7726 52.2091 53.4444 52.0264 53.161C51.8437 52.8776 51.6201 52.6372 51.3554 52.4396C51.0905 52.2419 50.7941 52.0928 50.466 51.9921C50.1416 51.8915 49.7967 51.8411 49.4313 51.8411C48.7713 51.8411 48.1803 52.007 47.6583 52.3389C47.14 52.6707 46.7298 53.1573 46.4279 53.7987C46.1295 54.44 45.9804 55.223 45.9804 56.1478C45.9804 57.08 46.1295 57.8667 46.4279 58.508C46.7298 59.1494 47.1419 59.634 47.6639 59.9622C48.1859 60.2904 48.7731 60.4544 49.4257 60.4544C49.7873 60.4544 50.1305 60.4059 50.4548 60.3089C50.783 60.2082 51.0794 60.061 51.3441 59.8671C51.6088 59.6732 51.8326 59.4365 52.0153 59.1568C52.2017 58.8734 52.3304 58.549 52.4012 58.1836L54.1463 58.1892C54.053 58.7523 53.8722 59.2706 53.6037 59.7441C53.339 60.2139 52.9977 60.6203 52.5801 60.9633C52.1663 61.3026 51.6927 61.5656 51.1595 61.752C50.6264 61.9384 50.0446 62.0316 49.4145 62.0316C48.4227 62.0316 47.539 61.7967 46.7634 61.3269C45.9879 60.8533 45.3763 60.1766 44.9289 59.2967C44.4852 58.4167 44.2634 57.3671 44.2634 56.1478C44.2634 54.9247 44.487 53.8751 44.9345 52.9989C45.3819 52.1189 45.9935 51.444 46.769 50.9741C47.5445 50.5006 48.4264 50.2639 49.4145 50.2639C50.0223 50.2639 50.589 50.3514 51.1148 50.5267C51.6442 50.6983 52.1197 50.9519 52.541 51.2874C52.9624 51.6192 53.3109 52.0257 53.5869 52.5067C53.8629 52.9839 54.0493 53.5302 54.1463 54.1454Z" fill="white"/>
<path d="M56.2142 61.8749V50.4204H57.9425V55.3982H63.653V50.4204H65.3868V61.8749H63.653V56.8803H57.9425V61.8749H56.2142Z" fill="white"/>
<path d="M31.3338 69.8522C31.3338 69.0468 31.4382 68.3063 31.647 67.631C31.858 66.9534 32.1583 66.3301 32.5483 65.7612H33.213C33.0597 65.9722 32.9158 66.2322 32.7816 66.5411C32.6495 66.8479 32.5334 67.1856 32.4332 67.5543C32.3331 67.9207 32.2543 68.3 32.1967 68.692C32.1414 69.084 32.1137 69.4708 32.1137 69.8522C32.1137 70.3592 32.1626 70.8738 32.2606 71.3958C32.3587 71.9179 32.4908 72.4026 32.6569 72.8501C32.8231 73.2975 33.0085 73.6619 33.213 73.9431H32.5483C32.1583 73.3742 31.858 72.752 31.647 72.0766C31.4382 71.3991 31.3338 70.6576 31.3338 69.8522Z" fill="white"/>
<path d="M34.3133 73.1249V72.5496L36.4739 70.1845C36.7273 69.9075 36.9362 69.6668 37.1003 69.4622C37.2643 69.2556 37.3858 69.0616 37.4645 68.8806C37.5455 68.6974 37.586 68.5055 37.586 68.3053C37.586 68.0751 37.5307 67.876 37.4199 67.7076C37.3112 67.5393 37.162 67.4093 36.9723 67.3177C36.7828 67.2261 36.5697 67.1803 36.3332 67.1803C36.0818 67.1803 35.8623 67.2325 35.6748 67.3369C35.4895 67.4392 35.3456 67.5829 35.2433 67.7683C35.1432 67.9537 35.0931 68.1711 35.0931 68.4204H34.3388C34.3388 68.0369 34.4273 67.7002 34.6041 67.4104C34.781 67.1207 35.0217 66.8948 35.3265 66.7329C35.6333 66.5709 35.9774 66.49 36.3588 66.49C36.7423 66.49 37.0821 66.5709 37.3782 66.7329C37.6745 66.8948 37.9067 67.1131 38.0751 67.388C38.2434 67.6629 38.3275 67.9686 38.3275 68.3053C38.3275 68.546 38.2839 68.7815 38.1965 69.0116C38.1113 69.2396 37.9621 69.4942 37.749 69.7754C37.5381 70.0546 37.2452 70.3954 36.8701 70.7982L35.3999 72.3706V72.4218H38.4426V73.1249H34.3133Z" fill="white"/>
<path d="M41.8975 73.2143C41.416 73.2143 41.0058 73.0833 40.6669 72.8213C40.3282 72.557 40.0693 72.1746 39.8904 71.6739C39.7114 71.171 39.6219 70.5638 39.6219 69.8522C39.6219 69.1448 39.7114 68.5408 39.8904 68.04C40.0715 67.5371 40.3314 67.1536 40.6702 66.8895C41.0111 66.6231 41.4201 66.49 41.8975 66.49C42.3747 66.49 42.7827 66.6231 43.1216 66.8895C43.4625 67.1536 43.7223 67.5371 43.9013 68.04C44.0824 68.5408 44.173 69.1448 44.173 69.8522C44.173 70.5638 44.0836 71.171 43.9046 71.6739C43.7256 72.1746 43.4667 72.557 43.1279 72.8213C42.7891 73.0833 42.379 73.2143 41.8975 73.2143ZM41.8975 72.5112C42.3747 72.5112 42.7455 72.2812 43.0096 71.8209C43.2739 71.3607 43.406 70.7045 43.406 69.8522C43.406 69.2854 43.3452 68.8028 43.2238 68.4044C43.1045 68.0059 42.9319 67.7023 42.706 67.4935C42.4824 67.2847 42.2128 67.1803 41.8975 67.1803C41.4244 67.1803 41.0547 67.4136 40.7884 67.8802C40.5222 68.3447 40.389 69.002 40.389 69.8522C40.389 70.4189 40.4486 70.9004 40.5679 71.2968C40.6872 71.693 40.8588 71.9945 41.0825 72.2013C41.3083 72.4079 41.58 72.5112 41.8975 72.5112Z" fill="white"/>
<path d="M45.3876 73.1249V72.5496L47.548 70.1845C47.8016 69.9075 48.0104 69.6668 48.1744 69.4622C48.3385 69.2556 48.4599 69.0616 48.5388 68.8806C48.6198 68.6974 48.6603 68.5055 48.6603 68.3053C48.6603 68.0751 48.6048 67.876 48.494 67.7076C48.3853 67.5393 48.2363 67.4093 48.0466 67.3177C47.8569 67.2261 47.6439 67.1803 47.4074 67.1803C47.1559 67.1803 46.9366 67.2325 46.749 67.3369C46.5636 67.4392 46.4199 67.5829 46.3176 67.7683C46.2175 67.9537 46.1673 68.1711 46.1673 68.4204H45.4131C45.4131 68.0369 45.5015 67.7002 45.6784 67.4104C45.8552 67.1207 46.096 66.8948 46.4006 66.7329C46.7075 66.5709 47.0515 66.49 47.4329 66.49C47.8165 66.49 48.1563 66.5709 48.4525 66.7329C48.7487 66.8948 48.9809 67.1131 49.1492 67.388C49.3175 67.6629 49.4017 67.9686 49.4017 68.3053C49.4017 68.546 49.358 68.7815 49.2707 69.0116C49.1854 69.2396 49.0363 69.4942 48.8232 69.7754C48.6123 70.0546 48.3193 70.3954 47.9443 70.7982L46.4742 72.3706V72.4218H49.5168V73.1249H45.3876Z" fill="white"/>
<path d="M52.8822 73.2145C52.5072 73.2145 52.1695 73.1399 51.869 72.9909C51.5686 72.8417 51.3279 72.6371 51.1468 72.3772C50.9656 72.1172 50.8665 71.8211 50.8495 71.4886H51.6166C51.6464 71.7849 51.7806 72.0299 52.0192 72.2237C52.2601 72.4155 52.5476 72.5114 52.8822 72.5114C53.1506 72.5114 53.3893 72.4486 53.5981 72.3228C53.8091 72.1972 53.9741 72.0246 54.0935 71.8051C54.215 71.5835 54.2756 71.3332 54.2756 71.0541C54.2756 70.7685 54.2128 70.5139 54.0871 70.2902C53.9635 70.0643 53.7931 69.8864 53.5758 69.7565C53.3584 69.6264 53.1101 69.5604 52.831 69.5582C52.6308 69.5561 52.4251 69.5871 52.2142 69.651C52.0032 69.7127 51.8296 69.7927 51.6933 69.8907L50.9518 69.8011L51.3481 66.5796H54.7487V67.2827H52.0129L51.7827 69.2131H51.8211C51.9553 69.1066 52.1237 69.0181 52.3261 68.9478C52.5285 68.8775 52.7394 68.8424 52.9589 68.8424C53.3594 68.8424 53.7164 68.9383 54.0296 69.13C54.3449 69.3196 54.5921 69.5796 54.7711 69.9098C54.9522 70.2401 55.0426 70.6172 55.0426 71.0412C55.0426 71.4588 54.9489 71.8318 54.7614 72.1598C54.5761 72.4858 54.3204 72.7437 53.9944 72.9333C53.6685 73.1208 53.2977 73.2145 52.8822 73.2145Z" fill="white"/>
<path d="M57.9359 69.8522C57.9359 70.6576 57.8304 71.3991 57.6195 72.0766C57.4107 72.752 57.1113 73.3742 56.7214 73.9431H56.0566C56.2101 73.7322 56.3528 73.4722 56.4849 73.1633C56.6191 72.8564 56.7363 72.5198 56.8365 72.1533C56.9366 71.7847 57.0144 71.4043 57.0698 71.0123C57.1273 70.6182 57.1561 70.2314 57.1561 69.8522C57.1561 69.345 57.107 68.8305 57.009 68.3085C56.9111 67.7865 56.779 67.3017 56.6127 66.8543C56.4465 66.4069 56.2611 66.0425 56.0566 65.7612H56.7214C57.1113 66.3301 57.4107 66.9534 57.6195 67.631C57.8304 68.3063 57.9359 69.0468 57.9359 69.8522Z" fill="white"/>
<path d="M15.75 5.34375H74.25C79.9972 5.34375 84.6562 10.0028 84.6562 15.75V74.25C84.6562 79.9972 79.9972 84.6562 74.25 84.6562H15.75C10.0028 84.6562 5.34375 79.9972 5.34375 74.25V15.75C5.34375 10.0028 10.0028 5.34375 15.75 5.34375Z" stroke="white" stroke-width="1.5"/>
</g>
<rect x="0.5" y="0.5" width="89" height="89" rx="14.5" stroke="white"/>
<defs>
<clipPath id="clip0_12_88">
<rect width="90" height="90" rx="15" fill="white"/>
</clipPath>
</defs>
</svg>
