<svg width="80" height="80" viewBox="0 0 80 80" fill="none" xmlns="http://www.w3.org/2000/svg">
<path d="M0 12C0 5.37258 5.37258 0 12 0H68C74.6274 0 80 5.37258 80 12V68C80 74.6274 74.6274 80 68 80H12C5.37258 80 0 74.6274 0 68V12Z" fill="#3A5E98"/>
<path d="M32.1563 19.696C32.0199 18.4858 31.4574 17.5483 30.4688 16.8835C29.4801 16.2102 28.2358 15.8736 26.7358 15.8736C25.6619 15.8736 24.733 16.044 23.9489 16.3849C23.1648 16.7173 22.5554 17.1775 22.1207 17.7656C21.6946 18.3451 21.4815 19.0057 21.4815 19.7471C21.4815 20.3693 21.6264 20.9062 21.9162 21.3579C22.2145 21.8096 22.6023 22.1889 23.0795 22.4957C23.5653 22.794 24.0852 23.0454 24.6392 23.25C25.1932 23.446 25.7259 23.6079 26.2372 23.7358L28.794 24.4005C29.6293 24.6051 30.4858 24.8821 31.3636 25.2315C32.2415 25.5809 33.0554 26.0412 33.8054 26.6122C34.5554 27.1832 35.1605 27.8906 35.6207 28.7344C36.0895 29.5781 36.3239 30.588 36.3239 31.7642C36.3239 33.2471 35.9403 34.5639 35.1733 35.7145C34.4148 36.865 33.3111 37.7727 31.8622 38.4375C30.4219 39.1023 28.679 39.4346 26.6335 39.4346C24.6733 39.4346 22.9773 39.1236 21.5455 38.5014C20.1136 37.8792 18.9929 36.9971 18.1832 35.8551C17.3736 34.7045 16.9261 33.3409 16.8409 31.7642H20.804C20.8807 32.7102 21.1875 33.4986 21.7244 34.1292C22.2699 34.7514 22.9645 35.2159 23.8082 35.5227C24.6605 35.821 25.5938 35.9701 26.608 35.9701C27.7244 35.9701 28.7173 35.7954 29.5866 35.446C30.4645 35.088 31.1548 34.5937 31.6577 33.963C32.1605 33.3238 32.4119 32.5781 32.4119 31.7258C32.4119 30.9503 32.1903 30.3153 31.7472 29.821C31.3125 29.3267 30.7202 28.9176 29.9702 28.5937C29.2287 28.2699 28.3892 27.9844 27.4517 27.7372L24.358 26.8934C22.2614 26.3224 20.5994 25.4829 19.3722 24.375C18.1534 23.267 17.544 21.8011 17.544 19.9773C17.544 18.4687 17.9531 17.152 18.7713 16.027C19.5895 14.902 20.6974 14.0284 22.0952 13.4062C23.4929 12.7755 25.0696 12.4602 26.8253 12.4602C28.598 12.4602 30.1619 12.7713 31.517 13.3934C32.8807 14.0156 33.9545 14.8721 34.7386 15.963C35.5227 17.0454 35.9318 18.2898 35.9659 19.696H32.1563Z" fill="white"/>
<path d="M62.7901 21.3324H58.8015C58.6481 20.4801 58.3626 19.7301 57.945 19.0824C57.5273 18.4346 57.016 17.8849 56.4109 17.4332C55.8058 16.9815 55.1282 16.6406 54.3782 16.4105C53.6367 16.1804 52.8484 16.0653 52.0131 16.0653C50.5046 16.0653 49.1538 16.4446 47.9606 17.2031C46.7759 17.9616 45.8384 19.0738 45.1481 20.5398C44.4663 22.0057 44.1254 23.7954 44.1254 25.9091C44.1254 28.0398 44.4663 29.838 45.1481 31.304C45.8384 32.7699 46.7802 33.8778 47.9734 34.6278C49.1666 35.3778 50.5089 35.7528 52.0004 35.7528C52.8271 35.7528 53.6112 35.642 54.3526 35.4204C55.1026 35.1903 55.7802 34.8537 56.3853 34.4105C56.9904 33.9673 57.5018 33.4261 57.9194 32.7869C58.3455 32.1392 58.6396 31.3977 58.8015 30.5625L62.7901 30.5753C62.5771 31.8622 62.1637 33.0469 61.5501 34.1292C60.945 35.2031 60.1651 36.1321 59.2106 36.9162C58.2646 37.6917 57.1822 38.2926 55.9634 38.7187C54.7447 39.1449 53.4151 39.3579 51.9748 39.3579C49.7077 39.3579 47.6879 38.821 45.9151 37.7471C44.1424 36.6648 42.7447 35.1179 41.7219 33.1065C40.7077 31.0951 40.2006 28.696 40.2006 25.9091C40.2006 23.1136 40.712 20.7145 41.7347 18.7116C42.7575 16.7003 44.1552 15.1576 45.9279 14.0838C47.7006 13.0014 49.7163 12.4602 51.9748 12.4602C53.364 12.4602 54.6594 12.6605 55.8612 13.0611C57.0714 13.4531 58.158 14.0326 59.1211 14.7997C60.0842 15.5582 60.881 16.4872 61.5117 17.5866C62.1424 18.6775 62.5685 19.9261 62.7901 21.3324Z" fill="white"/>
<path d="M21.6165 46.1406V44.8182H29.4965V46.1406H26.3196V55H24.7884V46.1406H21.6165Z" fill="white"/>
<path d="M31.2378 55V44.8182H37.6213V46.1406H32.774V49.2429H37.2882V50.5603H32.774V53.6775H37.6809V55H31.2378Z" fill="white"/>
<path d="M48.13 48.1292H46.5788C46.5192 47.7978 46.4081 47.5061 46.2457 47.2542C46.0833 47.0023 45.8845 46.7886 45.6492 46.6129C45.4138 46.4372 45.1503 46.3047 44.8587 46.2152C44.5703 46.1257 44.2637 46.0809 43.9389 46.0809C43.3523 46.0809 42.8269 46.2284 42.3629 46.5234C41.9022 46.8184 41.5376 47.2509 41.2692 47.821C41.004 48.3911 40.8715 49.0871 40.8715 49.9091C40.8715 50.7377 41.004 51.437 41.2692 52.0071C41.5376 52.5772 41.9039 53.008 42.3679 53.2997C42.8319 53.5914 43.3539 53.7372 43.934 53.7372C44.2554 53.7372 44.5604 53.6941 44.8487 53.6079C45.1404 53.5184 45.4039 53.3875 45.6392 53.2152C45.8745 53.0428 46.0734 52.8324 46.2358 52.5838C46.4015 52.3319 46.5159 52.0435 46.5788 51.7187L48.13 51.7237C48.0471 52.2242 47.8864 52.6849 47.6477 53.1058C47.4124 53.5234 47.1091 53.8847 46.7379 54.1896C46.37 54.4912 45.9491 54.7249 45.4751 54.8906C45.0012 55.0563 44.4841 55.1392 43.924 55.1392C43.0424 55.1392 42.2569 54.9304 41.5675 54.5128C40.8781 54.0918 40.3345 53.4903 39.9368 52.7081C39.5424 51.9259 39.3452 50.9929 39.3452 49.9091C39.3452 48.8219 39.544 47.8889 39.9418 47.1101C40.3395 46.3279 40.8831 45.728 41.5724 45.3103C42.2618 44.8894 43.0457 44.679 43.924 44.679C44.4643 44.679 44.968 44.7568 45.4354 44.9126C45.906 45.0651 46.3286 45.2905 46.7031 45.5888C47.0777 45.8837 47.3875 46.245 47.6328 46.6726C47.8781 47.0968 48.0438 47.5824 48.13 48.1292Z" fill="white"/>
<path d="M49.9682 55V44.8182H51.5044V49.2429H56.5804V44.8182H58.1216V55H56.5804V50.5603H51.5044V55H49.9682Z" fill="white"/>
<path d="M27.8523 62.0909C27.8523 61.375 27.9451 60.7168 28.1307 60.1165C28.3182 59.5142 28.5852 58.9602 28.9318 58.4545H29.5227C29.3864 58.642 29.2585 58.8731 29.1392 59.1477C29.0218 59.4204 28.9186 59.7206 28.8295 60.0483C28.7405 60.374 28.6705 60.7112 28.6193 61.0596C28.5701 61.4081 28.5455 61.7519 28.5455 62.0909C28.5455 62.5416 28.589 62.999 28.6761 63.463C28.7633 63.9271 28.8807 64.3579 29.0284 64.7557C29.1761 65.1534 29.3409 65.4773 29.5227 65.7273H28.9318C28.5852 65.2216 28.3182 64.6685 28.1307 64.0682C27.9451 63.4659 27.8523 62.8068 27.8523 62.0909Z" fill="white"/>
<path d="M30.5007 65V64.4886L32.4212 62.3863C32.6465 62.1401 32.8322 61.9261 32.978 61.7443C33.1238 61.5606 33.2318 61.3882 33.3018 61.2273C33.3738 61.0644 33.4098 60.8939 33.4098 60.7159C33.4098 60.5113 33.3606 60.3343 33.2621 60.1846C33.1655 60.035 33.0329 59.9195 32.8643 59.838C32.6958 59.7566 32.5064 59.7159 32.2962 59.7159C32.0727 59.7159 31.8776 59.7623 31.7109 59.8551C31.5462 59.946 31.4183 60.0738 31.3274 60.2386C31.2384 60.4034 31.1939 60.5966 31.1939 60.8182H30.5234C30.5234 60.4773 30.602 60.178 30.7592 59.9204C30.9164 59.6629 31.1304 59.4621 31.4013 59.3182C31.674 59.1742 31.9799 59.1023 32.3189 59.1023C32.6598 59.1023 32.9619 59.1742 33.2251 59.3182C33.4884 59.4621 33.6948 59.6562 33.8445 59.9005C33.9941 60.1449 34.0689 60.4166 34.0689 60.7159C34.0689 60.9299 34.0301 61.1392 33.9524 61.3437C33.8767 61.5464 33.7441 61.7727 33.5547 62.0227C33.3672 62.2708 33.1068 62.5738 32.7734 62.9318L31.4666 64.3295V64.375H34.1712V65H30.5007Z" fill="white"/>
<path d="M37.2422 65.0795C36.8142 65.0795 36.4496 64.963 36.1484 64.7301C35.8473 64.4952 35.6172 64.1553 35.4581 63.7102C35.299 63.2632 35.2195 62.7235 35.2195 62.0909C35.2195 61.4621 35.299 60.9252 35.4581 60.4801C35.6191 60.0331 35.8501 59.6922 36.1513 59.4574C36.4543 59.2206 36.8179 59.1023 37.2422 59.1023C37.6664 59.1023 38.0291 59.2206 38.3303 59.4574C38.6333 59.6922 38.8643 60.0331 39.0234 60.4801C39.1844 60.9252 39.2649 61.4621 39.2649 62.0909C39.2649 62.7235 39.1854 63.2632 39.0263 63.7102C38.8672 64.1553 38.6371 64.4952 38.3359 64.7301C38.0348 64.963 37.6702 65.0795 37.2422 65.0795ZM37.2422 64.4545C37.6664 64.4545 37.996 64.25 38.2308 63.8409C38.4657 63.4318 38.5831 62.8485 38.5831 62.0909C38.5831 61.5871 38.5291 61.1581 38.4212 60.804C38.3151 60.4498 38.1617 60.1799 37.9609 59.9943C37.7621 59.8087 37.5225 59.7159 37.2422 59.7159C36.8217 59.7159 36.4931 59.9233 36.2564 60.338C36.0197 60.7509 35.9013 61.3352 35.9013 62.0909C35.9013 62.5947 35.9543 63.0227 36.0604 63.375C36.1664 63.7272 36.3189 63.9952 36.5178 64.179C36.7185 64.3627 36.96 64.4545 37.2422 64.4545Z" fill="white"/>
<path d="M40.3445 65V64.4886L42.2649 62.3863C42.4903 62.1401 42.6759 61.9261 42.8217 61.7443C42.9676 61.5606 43.0755 61.3882 43.1456 61.2273C43.2176 61.0644 43.2536 60.8939 43.2536 60.7159C43.2536 60.5113 43.2043 60.3343 43.1058 60.1846C43.0092 60.035 42.8767 59.9195 42.7081 59.838C42.5395 59.7566 42.3501 59.7159 42.1399 59.7159C41.9164 59.7159 41.7214 59.7623 41.5547 59.8551C41.3899 59.946 41.2621 60.0738 41.1712 60.2386C41.0822 60.4034 41.0376 60.5966 41.0376 60.8182H40.3672C40.3672 60.4773 40.4458 60.178 40.603 59.9204C40.7602 59.6629 40.9742 59.4621 41.245 59.3182C41.5178 59.1742 41.8236 59.1023 42.1626 59.1023C42.5036 59.1023 42.8056 59.1742 43.0689 59.3182C43.3322 59.4621 43.5386 59.6562 43.6882 59.9005C43.8378 60.1449 43.9126 60.4166 43.9126 60.7159C43.9126 60.9299 43.8738 61.1392 43.7962 61.3437C43.7204 61.5464 43.5878 61.7727 43.3984 62.0227C43.2109 62.2708 42.9505 62.5738 42.6172 62.9318L41.3104 64.3295V64.375H44.0149V65H40.3445Z" fill="white"/>
<path d="M47.0064 65.0795C46.6731 65.0795 46.3729 65.0132 46.1058 64.8807C45.8388 64.7481 45.6248 64.5663 45.4638 64.3352C45.3028 64.1041 45.2147 63.8409 45.1996 63.5454H45.8814C45.9079 63.8087 46.0272 64.0265 46.2393 64.1988C46.4534 64.3693 46.709 64.4545 47.0064 64.4545C47.245 64.4545 47.4572 64.3987 47.6428 64.2869C47.8303 64.1752 47.977 64.0218 48.0831 63.8267C48.1911 63.6297 48.245 63.4072 48.245 63.1591C48.245 62.9053 48.1892 62.679 48.0774 62.4801C47.9676 62.2793 47.8161 62.1212 47.6229 62.0057C47.4297 61.8901 47.209 61.8314 46.9609 61.8295C46.7829 61.8276 46.6001 61.8551 46.4126 61.9119C46.2251 61.9668 46.0708 62.0379 45.9496 62.125L45.2905 62.0454L45.6428 59.1818H48.6655V59.8068H46.2337L46.0291 61.5227H46.0632C46.1825 61.428 46.3322 61.3494 46.5121 61.2869C46.692 61.2244 46.8795 61.1932 47.0746 61.1932C47.4306 61.1932 47.7479 61.2784 48.0263 61.4488C48.3066 61.6174 48.5263 61.8485 48.6854 62.142C48.8464 62.4356 48.9268 62.7708 48.9268 63.1477C48.9268 63.5189 48.8435 63.8504 48.6768 64.142C48.5121 64.4318 48.2848 64.661 47.995 64.8295C47.7053 64.9962 47.3757 65.0795 47.0064 65.0795Z" fill="white"/>
<path d="M51.4986 62.0909C51.4986 62.8068 51.4048 63.4659 51.2173 64.0682C51.0317 64.6685 50.7656 65.2216 50.419 65.7273H49.8281C49.9645 65.5398 50.0914 65.3087 50.2088 65.0341C50.3281 64.7613 50.4323 64.4621 50.5213 64.1363C50.6103 63.8087 50.6795 63.4706 50.7287 63.1221C50.7798 62.7718 50.8054 62.428 50.8054 62.0909C50.8054 61.6401 50.7618 61.1827 50.6747 60.7187C50.5876 60.2547 50.4702 59.8238 50.3224 59.4261C50.1747 59.0284 50.0099 58.7045 49.8281 58.4545H50.419C50.7656 58.9602 51.0317 59.5142 51.2173 60.1165C51.4048 60.7168 51.4986 61.375 51.4986 62.0909Z" fill="white"/>
<path d="M14 4.75H66C71.1086 4.75 75.25 8.89137 75.25 14V66C75.25 71.1086 71.1086 75.25 66 75.25H14C8.89137 75.25 4.75 71.1086 4.75 66V14C4.75 8.89137 8.89137 4.75 14 4.75Z" stroke="white" stroke-width="1.5"/>
</svg>
