<svg width="40" height="40" viewBox="0 0 40 40" fill="none" xmlns="http://www.w3.org/2000/svg">
<path d="M40 10.48C40.0015 10.2168 39.951 9.9559 39.8515 9.71222C39.752 9.46854 39.6053 9.24691 39.42 9.06003L30.94 0.580033C30.7531 0.394671 30.5315 0.24802 30.2878 0.148491C30.0441 0.0489618 29.7832 -0.00148836 29.52 3.34286e-05C29.2568 -0.00148836 28.9958 0.0489618 28.7522 0.148491C28.5085 0.24802 28.2869 0.394671 28.1 0.580033L0.579972 28.1C0.39461 28.2869 0.247959 28.5085 0.14843 28.7522C0.0489007 28.9959 -0.00154939 29.2568 -2.76066e-05 29.52V38C-2.76066e-05 38.5305 0.210686 39.0392 0.585759 39.4142C0.960832 39.7893 1.46954 40 1.99997 40H10.48C10.7598 40.0153 11.0398 39.9715 11.3016 39.8716C11.5635 39.7717 11.8014 39.6178 12 39.42L33.74 17.56L39.42 12C39.6022 11.806 39.7509 11.5829 39.86 11.34C39.8792 11.1806 39.8792 11.0195 39.86 10.86C39.8693 10.7669 39.8693 10.6731 39.86 10.58L40 10.48ZM9.65997 36H3.99997V30.34L23.86 10.48L29.52 16.14L9.65997 36ZM32.34 13.32L26.68 7.66003L29.52 4.84003L35.16 10.48L32.34 13.32Z" fill="white"/>
</svg>
