<svg width="45" height="33" viewBox="0 0 45 33" fill="none" xmlns="http://www.w3.org/2000/svg">
<path d="M4.16666 11.9167H40.8333M17.9167 2.75L15.625 21.0833M27.0833 2.75L29.375 21.0833M22.5 21.0833V30.25M11.0417 30.25H33.9583M4.80833 21.0833H40.1917C40.54 21.0833 40.8838 21.0039 41.1968 20.8511C41.5099 20.6983 41.784 20.4762 41.9983 20.2015C42.2126 19.9269 42.3615 19.607 42.4336 19.2662C42.5057 18.9255 42.4992 18.5727 42.4146 18.2348L38.9771 4.48479C38.8529 3.98923 38.5668 3.54935 38.164 3.23504C37.7613 2.92073 37.265 2.75001 36.7542 2.75H8.24583C7.73495 2.75001 7.23873 2.92073 6.83598 3.23504C6.43323 3.54935 6.14706 3.98923 6.02291 4.48479L2.58541 18.2348C2.50077 18.5727 2.49426 18.9255 2.5664 19.2662C2.63854 19.607 2.78742 19.9269 3.00173 20.2015C3.21604 20.4762 3.49013 20.6983 3.80318 20.8511C4.11622 21.0039 4.45998 21.0833 4.80833 21.0833Z" stroke="white" stroke-width="4" stroke-linecap="round" stroke-linejoin="round"/>
</svg>
